<?xml version="1.0" encoding="UTF-8"?><svg id="Capa_1" xmlns="http://www.w3.org/2000/svg" viewBox="0 0 429.1 82"><defs><style>.cls-1{fill:#1d1d1b;}.cls-2{fill:#1f2b27;}.cls-3{fill:#0a7276;}</style></defs><polygon class="cls-3" points="38 .4 38 81.7 35.3 81.7 35.3 3 3 3 3 79 26.7 79 26.7 81.7 0 82 0 .4 38 .4"/><polygon class="cls-2" points="124.7 .4 124.7 81.7 121.7 81.7 121.7 3 89.3 3 89.3 79 113.3 79 113.3 81.7 86.7 81.7 86.7 .4 124.7 .4"/><path class="cls-3" d="M33,6v75.7h-3V8.7H8v64.5s.5.5.5.5h18.5v2.7H5.3V6h27.7Z"/><path class="cls-2" d="M91.9,8.7c0-1-.4-2.5.8-2.7h26.8v75.7h-2.7V8.7h-22v64.2s.5.5.5.5h18.2v3s-21.7,0-21.7,0c0-.7,0-1.3,0-2V8.7Z"/><path class="cls-2" d="M80,0c.3,0,1.3-.1,1.3.2v81.3s-3,.5-3,.5V3h-35s0-2.7,0-2.7c11.8-.4,23.8.5,35.5,0s.9-.3,1.1-.4Z"/><polygon class="cls-3" points="46 6 46 79 70 79 70 81.7 43.3 81.7 43.3 6 46 6"/><polygon class="cls-2" points="54 8.7 54 6 76.3 5.7 76 81.7 73.3 81.7 73.3 8.7 54 8.7"/><polygon class="cls-3" points="51.3 6 51.3 73.7 70 73.7 70 76.4 48.7 76.4 48.7 6 51.3 6"/><path class="cls-2" d="M80,0c-.2,0-.5.3-1.1.4-11.8.4-23.7-.4-35.5,0L80,0Z"/><path class="cls-3" d="M343.3,55.4c-.2,0-.3,0-.3-.3l.3.3Z"/><path class="cls-3" d="M380,55.4c-.2,0-.3,0-.3-.3l.3.3Z"/><path class="cls-1" d="M170.5,57.4s-3.2,2.5-9.3,2.5-16.1-3-16.1-15.8,7.9-15.8,16.5-15.8,8.8,2,8.8,2v1.1s-3.1-2.2-8.8-2.2-13,2.5-13,15,7.6,15,13,15,8.8-2.8,8.8-2.8v1.1Z"/><path class="cls-1" d="M203.4,47h-11.7l-5.4,12.1h-1.1l13.7-30.8h.3l13.2,30.8h-3.7l-5.2-12.1ZM203.1,46.2l-5.4-12.6-5.6,12.6h11Z"/><path class="cls-1" d="M246.1,36.5c0,8.7-10.4,8.6-11.9,8.6h-3.5v14h-3.4v-30.2s6.8,0,9.1,0,9.7.9,9.7,7.5ZM242.5,37c0-5.3-2.9-7.3-7.9-7.3h-3.9v14.6h2.6c5.6,0,9.1-1.9,9.1-7.3Z"/><path class="cls-1" d="M261.9,28.9h3.4v30.2h-3.4v-30.2Z"/><path class="cls-1" d="M302.9,29.7h-9.3v29.4h-3.4v-29.4h-9.3v-.8h22v.8Z"/><path class="cls-1" d="M327.3,47h-11.7l-5.4,12.1h-1.1l13.7-30.8h.3l13.2,30.8h-3.7l-5.2-12.1ZM326.9,46.2l-5.4-12.6-5.6,12.6h11Z"/><path class="cls-1" d="M366.6,58.3v.8h-15.5v-30.2h3.4v29.4h12Z"/><path class="cls-1" d="M395.9,29.7h-9.3v29.4h-3.4v-29.4h-9.3v-.8h22v.8Z"/><path class="cls-1" d="M420.2,47h-11.7l-5.4,12.1h-1.1l13.7-30.8h.3l13.2,30.8h-3.7l-5.2-12.1ZM419.9,46.2l-5.4-12.6-5.6,12.6h11Z"/></svg>